<svg width="301" height="300" viewBox="0 0 301 300" fill="none" xmlns="http://www.w3.org/2000/svg">
<path d="M131.655 198.4C131.655 193.2 133.455 188.8 137.055 185.2C140.655 181.6 145.055 179.8 150.255 179.8C155.455 179.8 159.855 181.6 163.455 185.2C167.055 188.8 168.855 193.2 168.855 198.4C168.855 203.6 167.055 208 163.455 211.6C159.855 215.2 155.455 217 150.255 217C145.055 217 140.655 215.2 137.055 211.6C133.455 208 131.655 203.6 131.655 198.4ZM150.255 134.2C158.055 134.2 164.955 133.9 170.955 133.3C176.955 132.5 183.355 130.5 190.155 127.3C196.955 124.1 204.655 119.3 213.255 112.9C222.055 106.5 232.955 97.6 245.955 86.2C249.355 83.4 252.755 82 256.155 82C260.155 82 263.555 83.4 266.355 86.2C269.155 89 270.555 92.4 270.555 96.4C270.555 98.6 269.955 100.7 268.755 102.7C267.755 104.7 266.455 106.4 264.855 107.8C252.255 119 240.955 128.3 230.955 135.7C221.155 142.9 211.855 148.7 203.055 153.1C194.255 157.3 185.655 160.3 177.255 162.1C168.855 163.9 159.855 164.8 150.255 164.8C140.055 164.8 130.655 164 122.055 162.4C113.655 160.6 105.155 157.5 96.5555 153.1C87.9555 148.7 78.7555 142.9 68.9555 135.7C59.1555 128.3 47.8555 119 35.0555 107.8C33.4555 106.4 32.0555 104.7 30.8555 102.7C29.8555 100.7 29.3555 98.6 29.3555 96.4C29.3555 92.4 30.7555 89 33.5555 86.2C36.3555 83.4 39.7555 82 43.7555 82C45.7555 82 47.5555 82.4 49.1555 83.2C50.7555 84 52.3555 85 53.9555 86.2C66.7555 97.4 77.4555 106.2 86.0555 112.6C94.8555 119 102.655 123.8 109.455 127C116.455 130.2 123.055 132.2 129.255 133C135.455 133.8 142.455 134.2 150.255 134.2Z" fill="#ff1493"/>
</svg>
